<svg width="24" height="24" viewBox="0 0 24 24" fill="none" xmlns="http://www.w3.org/2000/svg">
<path d="M0.686441 11.6392C0.686441 5.49053 5.67092 0.506052 11.8196 0.506052C17.9683 0.506052 22.9527 5.49053 22.9527 11.6392C22.9527 17.7879 17.9683 22.7723 11.8196 22.7723C5.67092 22.7723 0.686441 17.7879 0.686441 11.6392Z" stroke="white" stroke-width="1.0121"/>
<path fill-rule="evenodd" clip-rule="evenodd" d="M9.18169 6.47598C9.18169 7.26281 8.61638 7.89241 7.70869 7.89241H7.69205C6.8181 7.89241 6.25311 7.26281 6.25311 6.47598C6.25311 5.6725 6.83531 5.06052 7.72584 5.06052C8.61638 5.06052 9.16479 5.6725 9.18169 6.47598ZM9.01008 9.01091V17.2055H6.40689V9.01091H9.01008ZM18.3982 17.2055L18.3983 12.507C18.3983 9.98995 17.1141 8.81848 15.401 8.81848C14.0189 8.81848 13.4001 9.61386 13.0546 10.1718V9.01112H10.4511C10.4854 9.78007 10.4511 17.2058 10.4511 17.2058H13.0546V12.6292C13.0546 12.3843 13.0715 12.14 13.1403 11.9646C13.3285 11.4754 13.7569 10.9688 14.476 10.9688C15.4184 10.9688 15.7951 11.7202 15.7951 12.8214V17.2055H18.3982Z" fill="white"/>
</svg>
