<svg width="24" height="24" viewBox="0 0 24 24" fill="none" xmlns="http://www.w3.org/2000/svg">
<path d="M1.22761 11.6392C1.22761 5.49053 6.21209 0.506052 12.3608 0.506052C18.5094 0.506052 23.4939 5.49053 23.4939 11.6392C23.4939 17.7879 18.5094 22.7723 12.3608 22.7723C6.21209 22.7723 1.22761 17.7879 1.22761 11.6392Z" stroke="white" stroke-width="1.0121"/>
<g clip-path="url(#clip0)">
<path d="M14.6807 5.77052H9.84459C7.99602 5.77052 6.49211 7.27443 6.49211 9.123V13.959C6.49211 15.8076 7.99602 17.3115 9.84459 17.3115H14.6806C16.5292 17.3115 18.0331 15.8076 18.0331 13.9591V9.123C18.0331 7.27443 16.5292 5.77052 14.6807 5.77052ZM17.1315 13.959C17.1315 15.3104 16.032 16.4099 14.6807 16.4099H9.84459C8.49319 16.4099 7.39375 15.3104 7.39375 13.9591V9.123C7.39375 7.7716 8.49319 6.67216 9.84459 6.67216H14.6806C16.032 6.67216 17.1315 7.7716 17.1315 9.123V13.959Z" fill="white"/>
<path d="M12.2627 8.43036C10.5474 8.43036 9.15201 9.82579 9.15201 11.541C9.15201 13.2563 10.5474 14.6517 12.2627 14.6517C13.9779 14.6517 15.3733 13.2563 15.3733 11.541C15.3733 9.82579 13.9779 8.43036 12.2627 8.43036ZM12.2627 13.75C11.0446 13.75 10.0537 12.7591 10.0537 11.541C10.0537 10.323 11.0446 9.332 12.2627 9.332C13.4807 9.332 14.4717 10.323 14.4717 11.541C14.4717 12.7591 13.4807 13.75 12.2627 13.75Z" fill="white"/>
<path d="M15.4184 8.83608C15.6673 8.83608 15.8692 8.63424 15.8692 8.38526C15.8692 8.13628 15.6673 7.93444 15.4184 7.93444C15.1694 7.93444 14.9675 8.13628 14.9675 8.38526C14.9675 8.63424 15.1694 8.83608 15.4184 8.83608Z" fill="white"/>
</g>
<defs>
<clipPath id="clip0">
<rect width="11.541" height="11.541" fill="white" transform="translate(6.49211 5.77052)"/>
</clipPath>
</defs>
</svg>
