<svg width="24" height="24" viewBox="0 0 24 24" fill="none" xmlns="http://www.w3.org/2000/svg">
<path d="M0.866831 11.6392C0.866831 5.49053 5.85131 0.506052 12 0.506052C18.1486 0.506052 23.1331 5.49053 23.1331 11.6392C23.1331 17.7879 18.1486 22.7723 12 22.7723C5.85131 22.7723 0.866831 17.7879 0.866831 11.6392Z" stroke="white" stroke-width="1.0121"/>
<path d="M11.8392 9.50782L11.8634 9.90181L11.4612 9.85356C9.99709 9.66863 8.71805 9.04147 7.63207 7.98815L7.10114 7.46552L6.96439 7.85146C6.67479 8.7118 6.85981 9.62039 7.46314 10.2315C7.78491 10.5692 7.71251 10.6174 7.15745 10.4164C6.96439 10.3521 6.79546 10.3038 6.77937 10.328C6.72306 10.3842 6.91612 11.1159 7.06896 11.4054C7.27812 11.8074 7.70447 12.2014 8.17104 12.4346L8.56521 12.6195L8.09864 12.6276C7.64816 12.6276 7.63207 12.6356 7.68033 12.8044C7.84122 13.3271 8.47672 13.8819 9.18462 14.1231L9.68337 14.2919L9.24897 14.5492C8.60543 14.9191 7.84926 15.1282 7.0931 15.1442C6.7311 15.1523 6.43346 15.1845 6.43346 15.2086C6.43346 15.289 7.41487 15.7392 7.98602 15.9161C9.69945 16.4388 11.7347 16.2136 13.2631 15.3211C14.3491 14.6859 15.435 13.4236 15.9418 12.2014C16.2153 11.5501 16.4889 10.3601 16.4889 9.78924C16.4889 9.41937 16.513 9.37113 16.9635 8.9289C17.2289 8.6716 17.4783 8.39018 17.5266 8.30977C17.607 8.157 17.599 8.157 17.1887 8.29369C16.5049 8.53491 16.4084 8.50275 16.7463 8.14092C16.9956 7.88363 17.2933 7.41727 17.2933 7.28058C17.2933 7.25646 17.1726 7.29666 17.0359 7.36903C16.8911 7.44944 16.5693 7.57004 16.328 7.64241L15.8936 7.7791L15.4994 7.51376C15.2822 7.36903 14.9765 7.20822 14.8156 7.15998C14.4054 7.04741 13.7779 7.06349 13.4079 7.19214C12.4023 7.55396 11.7668 8.48667 11.8392 9.50782Z" fill="white"/>
</svg>
